<svg xmlns="http://www.w3.org/2000/svg" id="mainLogo" viewBox="0.00 0.00 300.00 300.00 " style="">
  <defs />
  <g data-refid="icon" fill="#3271ae" data-box="105.00 77.98 90.00 68.44 " transform="matrix(0.17578127095476043 0 0 0.17578127095476045 104.99997030283525 67.19986723063793)">
    <!--?xml version="1.0" encoding="iso-8859-1"?-->
    <!-- Generator: Adobe Illustrator 19.0.0, SVG Export Plug-In . SVG Version: 6.00 Build 0)  -->
    <svg version="1.1" id="FLDSRC_ICON" xmlns="http://www.w3.org/2000/svg" xmlns:xlink="http://www.w3.org/1999/xlink" x="0px" y="0px" viewBox="0 0 512 512" style="enable-background:new 0 0 512 512;" xml:space="preserve" width="512" height="512">
      <g>
        <g>
          <path d="M502.665,88.689l-47.636-19.447c-41.857-17.072-88.946-5.939-117.177,27.705l-24.674,29.405&#xA;&#x9;&#x9;&#x9;c-56.451-37.595-133.583-27.503-178.174,25.642C86.42,209.891,113.299,177.779,3.491,309.164&#xA;&#x9;&#x9;&#x9;c-5.305,6.348-4.47,15.793,1.868,21.111l45.966,38.57c6.356,5.333,15.84,4.492,21.157-1.877l25.545-30.596l55.567,46.626&#xA;&#x9;&#x9;&#x9;c32.18,27.003,80.365,24.466,107.418-7.778l38.565-45.961c0.001-0.001,0.003-0.003,0.004-0.004l77.788-92.704&#xA;&#x9;&#x9;&#x9;c12.391-14.768,13.411-35.425,4.113-51.577l25.317-30.171c3.806-4.534,10.307-5.97,16.178-3.576l47.62,19.436&#xA;&#x9;&#x9;&#x9;c7.791,3.183,16.677-0.68,19.679-8.53l20.73-54.196C513.92,100.319,510.216,91.771,502.665,88.689z M238.03,355.935&#xA;&#x9;&#x9;&#x9;c-15.815,18.848-44.924,21.052-65.151,4.079l-55.623-46.673l28.842-34.545c12.211-14.55,32.348-18.895,50.224-12.502&#xA;&#x9;&#x9;&#x9;c-12.993,19.577-14.984,44.529-4.917,66.844c3.405,7.549,12.286,10.914,19.842,7.505c7.552-3.407,10.913-12.291,7.505-19.842&#xA;&#x9;&#x9;&#x9;c-5.719-12.678-4.698-26.732,2.467-37.719l45.739,38.38L238.03,355.935z M354.388,217.266l-68.145,81.212&#xA;&#x9;&#x9;&#x9;c-24.188-20.296-29.578-24.819-57.458-48.212c-27.991-23.497-77.632-24.17-105.694,9.274c-8.595,10.294-55.405,66.361-64,76.657&#xA;&#x9;&#x9;&#x9;l-22.977-19.28c98.409-117.748,73.277-87.725,121.873-145.638c37.309-44.463,103.474-50.252,147.938-12.943&#xA;&#x9;&#x9;&#x9;c50.058,42.004,46.596,39.31,48.811,40.439C358.699,204.479,358.765,212.048,354.388,217.266z M467.734,137.089l-33.422-13.642&#xA;&#x9;&#x9;&#x9;c-17.985-7.336-38.279-2.487-50.494,12.07l-24.135,28.762l-22.982-19.285l24.136-28.763c19.819-23.622,53.12-31.34,82.859-19.211&#xA;&#x9;&#x9;&#x9;l34.049,13.9L467.734,137.089z" />
        </g>
      </g>
      <g>
        <g>
          <path d="M498.719,337.306l-51.47-89.144c-5.769-9.992-20.219-9.98-25.982,0l-52.463,90.861c-0.039,0.068-0.078,0.137-0.117,0.206&#xA;&#x9;&#x9;&#x9;c-6.171,11.09-9.434,23.691-9.434,36.441c0,41.358,33.647,75.005,75.005,75.005c41.358,0,75.005-33.647,75.005-75.005&#xA;&#x9;&#x9;&#x9;C509.263,362.141,505.616,348.876,498.719,337.306z M434.258,420.673c-24.815,0-45.003-20.188-45.003-45.003&#xA;&#x9;&#x9;&#x9;c0-7.62,1.934-15.141,5.594-21.756l39.409-68.251l38.534,66.74c0.039,0.067,0.078,0.134,0.118,0.201&#xA;&#x9;&#x9;&#x9;c4.154,6.942,6.35,14.918,6.35,23.065C479.261,400.485,459.072,420.673,434.258,420.673z" />
        </g>
      </g>
    </svg>
  </g>
  <path data-refid="title" data-textpathprops="{&quot;fontFamily&quot;:&quot;Audiowide&quot;,&quot;fontWeight&quot;:&quot;400&quot;,&quot;fontStyle&quot;:&quot;normal&quot;,&quot;fontSize&quot;:40,&quot;text&quot;:&quot;DAE&quot;,&quot;letterSpacing&quot;:0}" fill="#3271ae" d="M 30.9-16.29L 30.9-11.72Q 30.9-9.16  30.01-7.01Q 29.12-4.86  27.56-3.31Q 26-1.76  23.85-0.88Q 21.7 0  19.18 0L 19.18 0L 5.47 0Q 4.92 0  4.45-0.2Q 3.98-0.39  3.64-0.73Q 3.3-1.07  3.11-1.54Q 2.91-2.01  2.91-2.56L 2.91-2.56L 2.91-25.45Q 2.91-25.98  3.11-26.45Q 3.3-26.91  3.64-27.27Q 3.98-27.62  4.45-27.81Q 4.92-28.01  5.47-28.01L 5.47-28.01L 19.18-28.01Q 21.7-28.01  23.85-27.13Q 26-26.25  27.56-24.7Q 29.12-23.14  30.01-20.99Q 30.9-18.83  30.9-16.29L 30.9-16.29ZM 25.82-11.72L 25.82-16.29Q 25.82-17.77  25.34-19Q 24.86-20.23  23.98-21.1Q 23.11-21.97  21.88-22.45Q 20.66-22.93  19.18-22.93L 19.18-22.93L 7.99-22.93L 7.99-5.08L 19.18-5.08Q 20.66-5.08  21.88-5.56Q 23.11-6.04  23.98-6.9Q 24.86-7.77  25.34-8.99Q 25.82-10.21  25.82-11.72L 25.82-11.72ZM 63.3596875-25.45L 63.3596875 0L 58.2796875 0L 58.2796875-6.88L 40.4296875-6.88L 40.4296875 0L 35.3496875 0L 35.3496875-14Q 35.3496875-17.07  36.4096875-19.65Q 37.4596875-22.23  39.3396875-24.08Q 41.2096875-25.94  43.7696875-26.97Q 46.3296875-28.01  49.3596875-28.01L 49.3596875-28.01L 60.799687500000005-28.01Q 61.3296875-28.01  61.799687500000005-27.81Q 62.2696875-27.62  62.6196875-27.27Q 62.9696875-26.91  63.159687500000004-26.45Q 63.3596875-25.98  63.3596875-25.45L 63.3596875-25.45ZM 40.4296875-14L 40.4296875-11.95L 58.2796875-11.95L 58.2796875-22.93L 49.3596875-22.93Q 49.1196875-22.93  48.3696875-22.86Q 47.6196875-22.79  46.6296875-22.52Q 45.6396875-22.25  44.5496875-21.68Q 43.4596875-21.11  42.5396875-20.12Q 41.6196875-19.12  41.0296875-17.63Q 40.4296875-16.13  40.4296875-14L 40.4296875-14ZM 92.28859375-16.56L 92.28859375-11.45L 76.24859375-11.45L 76.24859375-16.56L 92.28859375-16.56ZM 94.56859375-5.08L 94.56859375 0L 76.24859375 0Q 75.19859375 0  73.94859375-0.37Q 72.69859375-0.74  71.62859375-1.59Q 70.56859375-2.44  69.84859375-3.8Q 69.13859375-5.16  69.13859375-7.13L 69.13859375-7.13L 69.13859375-25.45Q 69.13859375-25.98  69.33859375-26.45Q 69.52859375-26.91  69.86859375-27.27Q 70.21859375-27.62  70.68859375-27.81Q 71.14859375-28.01  71.69859375-28.01L 71.69859375-28.01L 94.56859375-28.01L 94.56859375-22.93L 74.21859375-22.93L 74.21859375-7.13Q 74.21859375-6.13  74.74859375-5.61Q 75.26859375000001-5.08  76.28859375-5.08L 76.28859375-5.08L 94.56859375-5.08Z" data-box="91.10 164.42 117.80 36.00 " transform="matrix(1.28525525547406 0 0 1.28525525547406 87.35756341355344 200.42009607793045)" />
  <path data-refid="slogan" data-textpathprops="{&quot;fontFamily&quot;:&quot;Montserrat&quot;,&quot;fontWeight&quot;:&quot;400&quot;,&quot;fontStyle&quot;:&quot;italic&quot;,&quot;fontSize&quot;:14,&quot;text&quot;:&quot;Digital Assistant for Energy&quot;,&quot;letterSpacing&quot;:0}" fill="#3271ae" d="M 0.87 0L 2.83-9.8L 6.55-9.8Q 8.01-9.8  9.05-9.31Q 10.09-8.82  10.63-7.92Q 11.17-7.01  11.17-5.81L 11.17-5.81Q 11.17-4.1  10.42-2.79Q 9.66-1.47  8.28-0.73Q 6.9 0  5.08 0L 5.08 0L 0.87 0ZM 2.07-0.9L 5.11-0.9Q 6.64-0.9  7.78-1.52Q 8.92-2.14  9.53-3.25Q 10.14-4.35  10.14-5.77L 10.14-5.77Q 10.14-7.22  9.2-8.06Q 8.26-8.9  6.44-8.9L 6.44-8.9L 3.67-8.9L 2.07-0.9ZM 12.224 0L 13.674-7.36L 14.674-7.36L 13.214 0L 12.224 0ZM 14.604-8.97Q 14.304-8.97  14.124-9.17Q 13.934000000000001-9.37  13.934000000000001-9.63L 13.934000000000001-9.63Q 13.934000000000001-9.95  14.144-10.17Q 14.364-10.39  14.704-10.39L 14.704-10.39Q 14.994-10.39  15.193999999999999-10.2Q 15.384-10.01  15.384-9.76L 15.384-9.76Q 15.384-9.42  15.164-9.2Q 14.934000000000001-8.97  14.604-8.97L 14.604-8.97ZM 23.32-7.36L 24.28-7.36L 22.990000000000002-0.9Q 22.610000000000003 1.04  21.57 1.91Q 20.520000000000003 2.79  18.700000000000003 2.79L 18.700000000000003 2.79Q 17.67 2.79  16.840000000000003 2.5Q 16.000000000000004 2.21  15.430000000000001 1.68L 15.430000000000001 1.68L 16.020000000000003 0.92Q 16.46 1.39  17.180000000000003 1.65Q 17.910000000000004 1.9  18.770000000000003 1.9L 18.770000000000003 1.9Q 20.160000000000004 1.9  20.93 1.26Q 21.700000000000003 0.62  21.970000000000002-0.73L 21.970000000000002-0.73L 22.130000000000003-1.54Q 21.6-0.94  20.85-0.61Q 20.1-0.28  19.19-0.28L 19.19-0.28Q 17.720000000000002-0.28  16.840000000000003-1.08Q 15.950000000000001-1.88  15.950000000000001-3.25L 15.950000000000001-3.25Q 15.950000000000001-4.42  16.490000000000002-5.38Q 17.020000000000003-6.33  17.98-6.87Q 18.94-7.42  20.150000000000002-7.42L 20.150000000000002-7.42Q 21.200000000000003-7.42  21.950000000000003-6.99Q 22.71-6.57  23.020000000000003-5.74L 23.020000000000003-5.74L 23.32-7.36ZM 19.39-1.16Q 20.3-1.16  21.040000000000003-1.58Q 21.770000000000003-2  22.18-2.74Q 22.6-3.49  22.6-4.41L 22.6-4.41Q 22.6-5.42  21.950000000000003-5.99Q 21.310000000000002-6.55  20.160000000000004-6.55L 20.160000000000004-6.55Q 19.240000000000002-6.55  18.51-6.13Q 17.78-5.71  17.37-4.97Q 16.950000000000003-4.23  16.950000000000003-3.3L 16.950000000000003-3.3Q 16.950000000000003-2.3  17.6-1.73Q 18.240000000000002-1.16  19.39-1.16L 19.39-1.16ZM 25.594 0L 27.044-7.36L 28.044-7.36L 26.584 0L 25.594 0ZM 27.974-8.97Q 27.674-8.97  27.494-9.17Q 27.304000000000002-9.37  27.304000000000002-9.63L 27.304000000000002-9.63Q 27.304000000000002-9.95  27.514000000000003-10.17Q 27.734-10.39  28.074-10.39L 28.074-10.39Q 28.364-10.39  28.564-10.2Q 28.754-10.01  28.754-9.76L 28.754-9.76Q 28.754-9.42  28.534000000000002-9.2Q 28.304000000000002-8.97  27.974-8.97L 27.974-8.97ZM 31.810000000000002-6.52L 30.950000000000003-2.23Q 30.900000000000002-1.89  30.900000000000002-1.76L 30.900000000000002-1.76Q 30.900000000000002-0.78  31.96-0.78L 31.96-0.78Q 32.59-0.78  33.1-1.16L 33.1-1.16L 33.330000000000005-0.41Q 32.7 0.07  31.700000000000003 0.07L 31.700000000000003 0.07Q 30.870000000000005 0.07  30.390000000000004-0.38Q 29.900000000000002-0.83  29.900000000000002-1.61L 29.900000000000002-1.61Q 29.900000000000002-1.92  29.960000000000004-2.18L 29.960000000000004-2.18L 30.810000000000002-6.52L 29.51-6.52L 29.67-7.36L 30.980000000000004-7.36L 31.300000000000004-8.97L 32.300000000000004-8.97L 31.980000000000004-7.36L 34.22-7.36L 34.050000000000004-6.52L 31.810000000000002-6.52ZM 41.968-7.36L 42.968-7.36L 41.498000000000005 0L 40.548 0L 40.778000000000006-1.16Q 40.248000000000005-0.57  39.518-0.25Q 38.798 0.07  37.908 0.07L 37.908 0.07Q 36.978 0.07  36.248000000000005-0.31Q 35.518-0.69  35.108000000000004-1.39Q 34.708000000000006-2.1  34.708000000000006-3.05L 34.708000000000006-3.05Q 34.708000000000006-4.3  35.248000000000005-5.29Q 35.788000000000004-6.29  36.738-6.85Q 37.688-7.42  38.868-7.42L 38.868-7.42Q 39.918-7.42  40.628-7.01Q 41.338-6.59  41.668-5.82L 41.668-5.82L 41.968-7.36ZM 38.118-0.81Q 39.028000000000006-0.81  39.758-1.25Q 40.488-1.69  40.898-2.48Q 41.318000000000005-3.28  41.318000000000005-4.26L 41.318000000000005-4.26Q 41.318000000000005-5.33  40.678000000000004-5.94Q 40.038000000000004-6.55  38.888000000000005-6.55L 38.888000000000005-6.55Q 37.978-6.55  37.258-6.1Q 36.528000000000006-5.66  36.118-4.87Q 35.698-4.07  35.698-3.09L 35.698-3.09Q 35.698-2.02  36.338-1.41Q 36.978-0.81  38.118-0.81L 38.118-0.81ZM 44.269999999999996 0L 46.339999999999996-10.39L 47.33-10.39L 45.26 0L 44.269999999999996 0ZM 59.294 0L 58.634-2.62L 53.153999999999996-2.62L 51.464 0L 50.343999999999994 0L 56.784-9.8L 57.803999999999995-9.8L 60.324 0L 59.294 0ZM 53.693999999999996-3.46L 58.434-3.46L 57.104-8.75L 53.693999999999996-3.46ZM 63.812 0.07Q 62.932 0.07  62.122-0.18Q 61.322-0.43 60.882-0.83L 60.882-0.83L 61.362-1.61Q 61.782000000000004-1.25  62.472-1.02Q 63.152-0.8  63.912-0.8L 63.912-0.8Q 64.962-0.8  65.522-1.14Q 66.092-1.48  66.092-2.11L 66.092-2.11Q 66.092-2.46  65.862-2.67Q 65.632-2.88  65.292-3Q 64.962-3.11  64.312-3.25L 64.312-3.25Q 63.542-3.42  63.072-3.58Q 62.592-3.75  62.262-4.12Q 61.922-4.48  61.922-5.12L 61.922-5.12Q 61.922-6.17  62.792-6.8Q 63.662-7.42  65.112-7.42L 65.112-7.42Q 65.832-7.42  66.512-7.23Q 67.182-7.04  67.602-6.73L 67.602-6.73L 67.182-5.94Q 66.762-6.24  66.202-6.41Q 65.632-6.57  65.032-6.57L 65.032-6.57Q 64.022-6.57  63.462-6.2Q 62.902-5.84  62.902-5.22L 62.902-5.22Q 62.902-4.86  63.142-4.63Q 63.382-4.41  63.732-4.3Q 64.092-4.19  64.712-4.06L 64.712-4.06Q 65.462-3.89  65.932-3.73Q 66.402-3.57  66.742-3.21Q 67.072-2.84  67.072-2.23L 67.072-2.23Q 67.072-1.15  66.182-0.54Q 65.292 0.07  63.812 0.07L 63.812 0.07ZM 70.658 0.07Q 69.778 0.07  68.968-0.18Q 68.168-0.43 67.72800000000001-0.83L 67.72800000000001-0.83L 68.208-1.61Q 68.628-1.25  69.318-1.02Q 69.998-0.8  70.75800000000001-0.8L 70.75800000000001-0.8Q 71.808-0.8  72.36800000000001-1.14Q 72.938-1.48  72.938-2.11L 72.938-2.11Q 72.938-2.46  72.708-2.67Q 72.47800000000001-2.88  72.138-3Q 71.808-3.11  71.158-3.25L 71.158-3.25Q 70.388-3.42  69.918-3.58Q 69.438-3.75  69.108-4.12Q 68.768-4.48  68.768-5.12L 68.768-5.12Q 68.768-6.17  69.638-6.8Q 70.50800000000001-7.42  71.958-7.42L 71.958-7.42Q 72.678-7.42  73.358-7.23Q 74.028-7.04  74.44800000000001-6.73L 74.44800000000001-6.73L 74.028-5.94Q 73.608-6.24  73.048-6.41Q 72.47800000000001-6.57  71.878-6.57L 71.878-6.57Q 70.86800000000001-6.57  70.308-6.2Q 69.748-5.84  69.748-5.22L 69.748-5.22Q 69.748-4.86  69.988-4.63Q 70.22800000000001-4.41  70.578-4.3Q 70.938-4.19  71.558-4.06L 71.558-4.06Q 72.308-3.89  72.778-3.73Q 73.248-3.57  73.58800000000001-3.21Q 73.918-2.84  73.918-2.23L 73.918-2.23Q 73.918-1.15  73.028-0.54Q 72.138 0.07  70.658 0.07L 70.658 0.07ZM 75.364 0L 76.81400000000001-7.36L 77.81400000000001-7.36L 76.35400000000001 0L 75.364 0ZM 77.74400000000001-8.97Q 77.444-8.97  77.26400000000001-9.17Q 77.07400000000001-9.37  77.07400000000001-9.63L 77.07400000000001-9.63Q 77.07400000000001-9.95  77.284-10.17Q 77.504-10.39  77.84400000000001-10.39L 77.84400000000001-10.39Q 78.13400000000001-10.39  78.334-10.2Q 78.524-10.01  78.524-9.76L 78.524-9.76Q 78.524-9.42  78.304-9.2Q 78.07400000000001-8.97  77.74400000000001-8.97L 77.74400000000001-8.97ZM 81.27000000000001 0.07Q 80.39000000000001 0.07  79.58000000000001-0.18Q 78.78000000000002-0.43 78.34000000000002-0.83L 78.34000000000002-0.83L 78.82000000000001-1.61Q 79.24000000000001-1.25  79.93-1.02Q 80.61000000000001-0.8  81.37000000000002-0.8L 81.37000000000002-0.8Q 82.42000000000002-0.8  82.98000000000002-1.14Q 83.55000000000001-1.48  83.55000000000001-2.11L 83.55000000000001-2.11Q 83.55000000000001-2.46  83.32000000000001-2.67Q 83.09000000000002-2.88  82.75000000000001-3Q 82.42000000000002-3.11  81.77000000000001-3.25L 81.77000000000001-3.25Q 81.00000000000001-3.42  80.53000000000002-3.58Q 80.05000000000001-3.75  79.72000000000001-4.12Q 79.38000000000001-4.48  79.38000000000001-5.12L 79.38000000000001-5.12Q 79.38000000000001-6.17  80.25000000000001-6.8Q 81.12000000000002-7.42  82.57000000000001-7.42L 82.57000000000001-7.42Q 83.29000000000002-7.42  83.97000000000001-7.23Q 84.64000000000001-7.04  85.06000000000002-6.73L 85.06000000000002-6.73L 84.64000000000001-5.94Q 84.22000000000001-6.24  83.66000000000001-6.41Q 83.09000000000002-6.57  82.49000000000001-6.57L 82.49000000000001-6.57Q 81.48000000000002-6.57  80.92000000000002-6.2Q 80.36000000000001-5.84  80.36000000000001-5.22L 80.36000000000001-5.22Q 80.36000000000001-4.86  80.60000000000001-4.63Q 80.84000000000002-4.41  81.19000000000001-4.3Q 81.55000000000001-4.19  82.17000000000002-4.06L 82.17000000000002-4.06Q 82.92000000000002-3.89  83.39000000000001-3.73Q 83.86000000000001-3.57  84.20000000000002-3.21Q 84.53000000000002-2.84  84.53000000000002-2.23L 84.53000000000002-2.23Q 84.53000000000002-1.15  83.64000000000001-0.54Q 82.75000000000001 0.07  81.27000000000001 0.07L 81.27000000000001 0.07ZM 88.42600000000002-6.52L 87.56600000000002-2.23Q 87.51600000000002-1.89  87.51600000000002-1.76L 87.51600000000002-1.76Q 87.51600000000002-0.78  88.57600000000002-0.78L 88.57600000000002-0.78Q 89.20600000000002-0.78  89.71600000000002-1.16L 89.71600000000002-1.16L 89.94600000000001-0.41Q 89.31600000000002 0.07  88.31600000000002 0.07L 88.31600000000002 0.07Q 87.48600000000002 0.07  87.00600000000001-0.38Q 86.51600000000002-0.83  86.51600000000002-1.61L 86.51600000000002-1.61Q 86.51600000000002-1.92  86.57600000000002-2.18L 86.57600000000002-2.18L 87.42600000000002-6.52L 86.12600000000002-6.52L 86.28600000000002-7.36L 87.59600000000002-7.36L 87.91600000000001-8.97L 88.91600000000001-8.97L 88.59600000000002-7.36L 90.83600000000001-7.36L 90.66600000000001-6.52L 88.42600000000002-6.52ZM 98.58400000000002-7.36L 99.58400000000002-7.36L 98.11400000000002 0L 97.16400000000002 0L 97.39400000000002-1.16Q 96.86400000000002-0.57  96.13400000000003-0.25Q 95.41400000000002 0.07  94.52400000000003 0.07L 94.52400000000003 0.07Q 93.59400000000002 0.07  92.86400000000002-0.31Q 92.13400000000003-0.69  91.72400000000002-1.39Q 91.32400000000003-2.1  91.32400000000003-3.05L 91.32400000000003-3.05Q 91.32400000000003-4.3  91.86400000000002-5.29Q 92.40400000000002-6.29  93.35400000000003-6.85Q 94.30400000000002-7.42  95.48400000000002-7.42L 95.48400000000002-7.42Q 96.53400000000002-7.42  97.24400000000003-7.01Q 97.95400000000002-6.59  98.28400000000002-5.82L 98.28400000000002-5.82L 98.58400000000002-7.36ZM 94.73400000000002-0.81Q 95.64400000000002-0.81  96.37400000000002-1.25Q 97.10400000000003-1.69  97.51400000000002-2.48Q 97.93400000000003-3.28  97.93400000000003-4.26L 97.93400000000003-4.26Q 97.93400000000003-5.33  97.29400000000003-5.94Q 96.65400000000002-6.55  95.50400000000002-6.55L 95.50400000000002-6.55Q 94.59400000000002-6.55  93.87400000000002-6.1Q 93.14400000000002-5.66  92.73400000000002-4.87Q 92.31400000000002-4.07  92.31400000000002-3.09L 92.31400000000002-3.09Q 92.31400000000002-2.02  92.95400000000002-1.41Q 93.59400000000002-0.81  94.73400000000002-0.81L 94.73400000000002-0.81ZM 105.93600000000002-7.42Q 107.18600000000002-7.42  107.87600000000003-6.78Q 108.56600000000003-6.15  108.56600000000003-5.03L 108.56600000000003-5.03Q 108.56600000000003-4.63  108.48600000000003-4.19L 108.48600000000003-4.19L 107.64600000000003 0L 106.65600000000003 0L 107.49600000000002-4.2Q 107.56600000000003-4.59  107.56600000000003-4.87L 107.56600000000003-4.87Q 107.56600000000003-5.67  107.07600000000002-6.1Q 106.59600000000003-6.52  105.65600000000003-6.52L 105.65600000000003-6.52Q 104.46600000000002-6.52  103.69600000000003-5.87Q 102.92600000000003-5.22  102.66600000000003-3.95L 102.66600000000003-3.95L 101.87600000000003 0L 100.88600000000002 0L 102.33600000000003-7.36L 103.29600000000002-7.36L 103.05600000000003-6.19Q 104.10600000000002-7.42  105.93600000000002-7.42L 105.93600000000002-7.42ZM 112.81400000000002-6.52L 111.95400000000002-2.23Q 111.90400000000002-1.89  111.90400000000002-1.76L 111.90400000000002-1.76Q 111.90400000000002-0.78  112.96400000000003-0.78L 112.96400000000003-0.78Q 113.59400000000002-0.78  114.10400000000003-1.16L 114.10400000000003-1.16L 114.33400000000002-0.41Q 113.70400000000002 0.07  112.70400000000002 0.07L 112.70400000000002 0.07Q 111.87400000000002 0.07  111.39400000000002-0.38Q 110.90400000000002-0.83  110.90400000000002-1.61L 110.90400000000002-1.61Q 110.90400000000002-1.92  110.96400000000003-2.18L 110.96400000000003-2.18L 111.81400000000002-6.52L 110.51400000000002-6.52L 110.67400000000002-7.36L 111.98400000000002-7.36L 112.30400000000002-8.97L 113.30400000000002-8.97L 112.98400000000002-7.36L 115.22400000000002-7.36L 115.05400000000002-6.52L 112.81400000000002-6.52ZM 124.05600000000003-9.62Q 123.39600000000003-9.62  123.01600000000002-9.27Q 122.63600000000002-8.92  122.48600000000003-8.18L 122.48600000000003-8.18L 122.31600000000003-7.36L 124.57600000000002-7.36L 124.40600000000002-6.52L 122.17600000000003-6.52L 120.87600000000002 0L 119.88600000000002 0L 121.18600000000002-6.52L 119.86600000000003-6.52L 120.02600000000002-7.36L 121.35600000000002-7.36L 121.53600000000003-8.29Q 121.74600000000002-9.34  122.38600000000002-9.9Q 123.01600000000002-10.46  124.05600000000003-10.46L 124.05600000000003-10.46Q 124.50600000000003-10.46  124.89600000000003-10.33Q 125.28600000000003-10.21  125.53600000000003-9.98L 125.53600000000003-9.98L 125.10600000000002-9.25Q 124.69600000000003-9.62  124.05600000000003-9.62L 124.05600000000003-9.62ZM 127.60600000000004 0.07Q 126.60600000000004 0.07  125.84600000000003-0.32Q 125.08600000000003-0.7  124.67600000000003-1.41Q 124.26600000000003-2.11  124.26600000000003-3.05L 124.26600000000003-3.05Q 124.26600000000003-4.3  124.80600000000003-5.29Q 125.35600000000004-6.29  126.32600000000004-6.85Q 127.30600000000003-7.42  128.51600000000002-7.42L 128.51600000000002-7.42Q 130.05600000000004-7.42  130.96600000000004-6.58Q 131.86600000000004-5.74  131.86600000000004-4.31L 131.86600000000004-4.31Q 131.86600000000004-3.07  131.31600000000003-2.06Q 130.77600000000004-1.06  129.80600000000004-0.5Q 128.82600000000002 0.07  127.60600000000004 0.07L 127.60600000000004 0.07ZM 127.67600000000003-0.81Q 128.58600000000004-0.81  129.31600000000003-1.25Q 130.04600000000002-1.69  130.45600000000002-2.48Q 130.87600000000003-3.28  130.87600000000003-4.26L 130.87600000000003-4.26Q 130.87600000000003-5.33  130.23600000000002-5.94Q 129.59600000000003-6.55  128.44600000000003-6.55L 128.44600000000003-6.55Q 127.53600000000003-6.55  126.81600000000003-6.1Q 126.08600000000003-5.66  125.67600000000003-4.87Q 125.25600000000003-4.07  125.25600000000003-3.09L 125.25600000000003-3.09Q 125.25600000000003-2.02  125.89600000000003-1.41Q 126.53600000000003-0.81  127.67600000000003-0.81L 127.67600000000003-0.81ZM 135.26400000000004-6.02Q 135.75400000000005-6.73  136.50400000000005-7.08Q 137.24400000000003-7.42  138.29400000000004-7.42L 138.29400000000004-7.42L 138.11400000000003-6.45L 137.83400000000003-6.47Q 136.64400000000003-6.47  135.87400000000002-5.78Q 135.11400000000003-5.1  134.84400000000002-3.74L 134.84400000000002-3.74L 134.10400000000004 0L 133.11400000000003 0L 134.56400000000005-7.36L 135.52400000000003-7.36L 135.26400000000004-6.02ZM 151.10600000000005-8.9L 145.40600000000003-8.9L 144.70600000000005-5.42L 149.78600000000006-5.42L 149.61600000000004-4.54L 144.53600000000006-4.54L 143.80600000000004-0.9L 149.70600000000005-0.9L 149.51600000000005 0L 142.60600000000005 0L 144.56600000000006-9.8L 151.28600000000006-9.8L 151.10600000000005-8.9ZM 156.81200000000004-7.42Q 158.06200000000004-7.42  158.75200000000004-6.78Q 159.44200000000004-6.15  159.44200000000004-5.03L 159.44200000000004-5.03Q 159.44200000000004-4.63  159.36200000000002-4.19L 159.36200000000002-4.19L 158.52200000000002 0L 157.53200000000004 0L 158.37200000000004-4.2Q 158.44200000000004-4.59  158.44200000000004-4.87L 158.44200000000004-4.87Q 158.44200000000004-5.67  157.95200000000003-6.1Q 157.47200000000004-6.52  156.53200000000004-6.52L 156.53200000000004-6.52Q 155.34200000000004-6.52  154.57200000000003-5.87Q 153.80200000000002-5.22  153.54200000000003-3.95L 153.54200000000003-3.95L 152.75200000000004 0L 151.76200000000003 0L 153.21200000000005-7.36L 154.17200000000003-7.36L 153.93200000000004-6.19Q 154.98200000000003-7.42  156.81200000000004-7.42L 156.81200000000004-7.42ZM 168.37800000000004-3.4L 162.18800000000005-3.4Q 162.17800000000003-3.3  162.17800000000003-3.11L 162.17800000000003-3.11Q 162.17800000000003-1.99  162.81800000000004-1.4Q 163.44800000000004-0.81  164.70800000000003-0.81L 164.70800000000003-0.81Q 165.43800000000005-0.81  166.07800000000003-1.06Q 166.70800000000003-1.3  167.11800000000002-1.74L 167.11800000000002-1.74L 167.56800000000004-1.02Q 167.04800000000003-0.5  166.26800000000003-0.22Q 165.49800000000002 0.07  164.62800000000004 0.07L 164.62800000000004 0.07Q 163.02800000000002 0.07  162.11800000000002-0.77Q 161.19800000000004-1.61  161.19800000000004-3.07L 161.19800000000004-3.07Q 161.19800000000004-4.3  161.71800000000005-5.29Q 162.24800000000002-6.29  163.17800000000003-6.85Q 164.10800000000003-7.42  165.26800000000003-7.42L 165.26800000000003-7.42Q 166.73800000000003-7.42  167.60800000000003-6.59Q 168.47800000000004-5.75  168.47800000000004-4.3L 168.47800000000004-4.3Q 168.47800000000004-3.89  168.37800000000004-3.4L 168.37800000000004-3.4ZM 165.23800000000003-6.58Q 164.13800000000003-6.58  163.34800000000004-5.92Q 162.56800000000004-5.26  162.28800000000004-4.14L 162.28800000000004-4.14L 167.53800000000004-4.14Q 167.54800000000003-4.24  167.54800000000003-4.41L 167.54800000000003-4.41Q 167.54800000000003-5.45  166.91800000000003-6.01Q 166.28800000000004-6.58  165.23800000000003-6.58L 165.23800000000003-6.58ZM 171.87400000000002-6.02Q 172.36400000000003-6.73  173.11400000000003-7.08Q 173.854-7.42  174.90400000000002-7.42L 174.90400000000002-7.42L 174.72400000000002-6.45L 174.44400000000002-6.47Q 173.25400000000002-6.47  172.484-5.78Q 171.72400000000002-5.1  171.454-3.74L 171.454-3.74L 170.71400000000003 0L 169.72400000000002 0L 171.17400000000004-7.36L 172.13400000000001-7.36L 171.87400000000002-6.02ZM 182.48600000000002-7.36L 183.446-7.36L 182.156-0.9Q 181.776 1.04  180.73600000000002 1.91Q 179.686 2.79  177.866 2.79L 177.866 2.79Q 176.836 2.79  176.006 2.5Q 175.166 2.21  174.596 1.68L 174.596 1.68L 175.186 0.92Q 175.626 1.39  176.346 1.65Q 177.07600000000002 1.9  177.936 1.9L 177.936 1.9Q 179.32600000000002 1.9  180.096 1.26Q 180.866 0.62  181.136-0.73L 181.136-0.73L 181.29600000000002-1.54Q 180.76600000000002-0.94  180.01600000000002-0.61Q 179.26600000000002-0.28  178.35600000000002-0.28L 178.35600000000002-0.28Q 176.886-0.28  176.006-1.08Q 175.116-1.88  175.116-3.25L 175.116-3.25Q 175.116-4.42  175.656-5.38Q 176.186-6.33  177.14600000000002-6.87Q 178.10600000000002-7.42  179.316-7.42L 179.316-7.42Q 180.366-7.42  181.116-6.99Q 181.876-6.57  182.186-5.74L 182.186-5.74L 182.48600000000002-7.36ZM 178.556-1.16Q 179.466-1.16  180.20600000000002-1.58Q 180.936-2  181.346-2.74Q 181.76600000000002-3.49  181.76600000000002-4.41L 181.76600000000002-4.41Q 181.76600000000002-5.42  181.116-5.99Q 180.476-6.55  179.32600000000002-6.55L 179.32600000000002-6.55Q 178.406-6.55  177.67600000000002-6.13Q 176.946-5.71  176.536-4.97Q 176.116-4.23  176.116-3.3L 176.116-3.3Q 176.116-2.3  176.76600000000002-1.73Q 177.406-1.16  178.556-1.16L 178.556-1.16ZM 191.39000000000001-7.36L 192.42000000000002-7.36L 187.04000000000002 0.95Q 186.37000000000003 1.99  185.78000000000003 2.39Q 185.19000000000003 2.79  184.38000000000002 2.79L 184.38000000000002 2.79Q 183.85000000000002 2.79 183.37000000000003 2.61Q 182.90000000000003 2.44 182.63000000000002 2.13L 182.63000000000002 2.13L 183.16000000000003 1.4Q 183.67000000000002 1.93  184.46000000000004 1.93L 184.46000000000004 1.93Q 184.95000000000002 1.93  185.35000000000002 1.67Q 185.74 1.4  186.16000000000003 0.74L 186.16000000000003 0.74L 186.68000000000004-0.04L 184.84000000000003-7.36L 185.85000000000002-7.36L 187.38000000000002-1.09L 191.39000000000001-7.36Z" data-box="58.92 209.42 182.15 12.60 " transform="matrix(0.9509433962264151 0 0 0.9509433962264151 58.09607401613919 219.36696403873435)" />
</svg>