<svg xmlns="http://www.w3.org/2000/svg" height="800" width="1200" viewBox="-54 -109.8095 468 658.857"><defs><clipPath id="a"><path d="M0 0h360v439.238H0z"/></clipPath></defs><g clip-path="url(#a)"><path d="M1.571 0h358.43v350.555H1.57z" fill="#00246b"/><path d="M89.387 165.54c23.055-18.715 32.078-43.526 29.67-63.949-8.02-67.22-90.1-93.604-117.479-100.58v290.604c4.495-22.516 13.315-41.196 17.062-48.58 13.466-26.47 64.348-72.173 70.746-77.495zM277.459 31.384C270.04 27.173 242.605 8.794 190.53 0H53.168C77.82 5.58 169.911 29.452 189.416 78.524c3.742 9.397 17.336 48.049-32.7 89.948-6.996 5.799-35.556 24.547-44.276 29.852-8.648 5.257-59.609 38.891-85.56 83.638-6.153 10.533-19.027 44.659-24.109 68.593h45.03c3.43-11.847 13.625-35.254 43.53-57.983 7.172-5.496 61.548-38.954 82.25-49.118 20.67-10.02 76.426-37.982 96.665-52.349 20.232-14.424 56.307-39.474 56.73-84.181.08-5.8.99-46.71-49.518-75.54z" fill="#e3001f"/><path d="M232.104 391.35c0-17.592-16.881-18.246-16.881-18.246h-26.246c-12.039 0-10.77 11.704-10.77 11.704v52.253l16.458.287v-48.894s9.055.159 13.53 0c4.515-.112 5.545 1.595 5.704 2.895.12 1.317.558 6.534-1.58 8.465-2.193 1.922-9.038 3.318-10.378 3.933-1.261.582-3.16 2.576-3.463 5.36-.343 2.729.87 5.266.87 5.266l14.823 23.303h19.808l-16.139-26.223c5.991-2.345 14.264-8.6 14.264-20.104zm-111.671-3.008h18.348v49.007h16.953v-48.64h17.24v-15.7h-52.541zm-55.222 19.659c0 30.187 9.86 29.19 9.86 29.19h40.464l.191-14.79H88.849c-5.066 0-5.066-3.55-5.066-3.55v-6.59h28.664v-13.314H83.783v-4.556c0-6.605 5.234-5.233 5.234-5.233h27.195v-15.516H76.46c-12.756 0-11.249 29.27-11.249 34.359zm277.578-34.502v33.65l-16.633-29.398s-3.056-4.643-11.161-4.643c-8.209 0-10.427.39-10.427.39v63.854h16.889v-32.98h1.156l14.241 26.694s3.765 6.127 7.116 6.127h14.655v-63.694zm-75.574-.699c-32.079 0-32.27 27.523-32.27 33.706 0 25.744 19.019 32.732 32.11 32.732 30.403 0 30.905-26.653 30.905-34.264 0-27.22-20.502-32.174-30.745-32.174zm-.479 51.352c-6.207 0-15.214-3.813-15.214-17.87 0-3.374.088-18.396 15.294-18.396 4.85 0 14.567 2.705 14.567 17.567 0 4.148-.239 18.7-14.647 18.7zm-233.565-61.71h-20.08C.2 362.443 0 372.999 0 372.999v64.355h20.255v-11.879c0-9.565 11.855-10.378 15.58-10.378 24.819 0 25.672-22.082 25.672-26.646 0-28.041-28.336-26.007-28.336-26.007zm-1.364 35.933c-8.281 0-11.177 3.996-11.2 4.036l-.766 1.093v-23.797h16.361c4.165 1.675 6.191 4.85 6.191 9.454 0 4.291-1.205 9.214-10.586 9.214z" fill="#00246b"/></g></svg>